<svg width="16" height="16" viewBox="0 0 16 16" fill="none" xmlns="http://www.w3.org/2000/svg">
<rect width="16" height="16" rx="8" fill="#1C1612"/>
<rect x="0.4" y="0.4" width="15.2" height="15.2" rx="7.6" stroke="#F0F8FE" stroke-opacity="0.75" stroke-width="0.8"/>
<path d="M2.83539 10L5.04039 5.1H5.93639L8.14839 10H7.19639L5.29939 5.583H5.66339L3.77339 10H2.83539ZM3.85039 8.866L4.09539 8.152H6.74139L6.98639 8.866H3.85039ZM11.5312 10.07C11.1579 10.07 10.8102 10.0093 10.4882 9.888C10.1709 9.762 9.8932 9.587 9.6552 9.363C9.42186 9.13433 9.23986 8.866 9.1092 8.558C8.97853 8.25 8.9132 7.914 8.9132 7.55C8.9132 7.186 8.97853 6.85 9.1092 6.542C9.23986 6.234 9.4242 5.968 9.6622 5.744C9.9002 5.51533 10.1779 5.34033 10.4952 5.219C10.8125 5.093 11.1602 5.03 11.5382 5.03C11.9395 5.03 12.3059 5.1 12.6372 5.24C12.9685 5.37533 13.2485 5.57833 13.4772 5.849L12.8892 6.402C12.7119 6.21067 12.5135 6.06833 12.2942 5.975C12.0749 5.877 11.8369 5.828 11.5802 5.828C11.3235 5.828 11.0879 5.87 10.8732 5.954C10.6632 6.038 10.4789 6.157 10.3202 6.311C10.1662 6.465 10.0449 6.647 9.9562 6.857C9.8722 7.067 9.8302 7.298 9.8302 7.55C9.8302 7.802 9.8722 8.033 9.9562 8.243C10.0449 8.453 10.1662 8.635 10.3202 8.789C10.4789 8.943 10.6632 9.062 10.8732 9.146C11.0879 9.23 11.3235 9.272 11.5802 9.272C11.8369 9.272 12.0749 9.22533 12.2942 9.132C12.5135 9.034 12.7119 8.887 12.8892 8.691L13.4772 9.251C13.2485 9.517 12.9685 9.72 12.6372 9.86C12.3059 10 11.9372 10.07 11.5312 10.07Z" fill="#F0F8FE"/>
</svg>
